# xmcd CD database file
#
# Track frame offsets:
#	150
#	13653
#	30501
#	53940
#	81545
#	107040
#	126370
#	143081
#	154059
#	170241
#	189250
#	209622
#	225710
#	235225
#
# Disc length: 3358 seconds
#
# Revision: 0
# Processed by: cddbd v1.5.2PL0 Copyright (c) Steve Scherf et al.
# Submitted via: CDex 1.51
#
DISCID=c30d1c0e
DTITLE=Various Artist - Your Guide To The North Sea Jazz Festival 2011
DYEAR=2011
DGENRE=Jazz
TTITLE0=Ben l' Oncle soul - Seven Nation Army
TTITLE1=Madeleine Peyroux - The things I've seen today
TTITLE2=Jonathan Jeremiah - See (It doesn't Bother me)
TTITLE3=John Scofield - Throw it away
TTITLE4=Kurt Elling - Norwegian wood
TTITLE5=Tom Jones - Did Trouble me
TTITLE6=Paul Simon - The Afterlife
TTITLE7=Sergio Mendes - Outra Vez
TTITLE8=Nikki Yanofsky - Take the 'A'Train
TTITLE9=Schradinova - Dogs Bark
TTITLE10=Branford Marsalis and Joey Calderazzo - The Bard lachrymose
TTITLE11=Gerald Clayton - Shout and Cry
TTITLE12=Milos Karadaglic - Lagrima
TTITLE13=Thomas Dybdahl - Cecilia
EXTD=YEAR: 2011
EXTT0=
EXTT1=
EXTT2=
EXTT3=
EXTT4=
EXTT5=
EXTT6=
EXTT7=
EXTT8=
EXTT9=
EXTT10=
EXTT11=
EXTT12=
EXTT13=
PLAYORDER=
